<svg width="204" height="100" viewBox="0 0 204 100" fill="none" xmlns="http://www.w3.org/2000/svg">
<mask id="path-1-outside-1_119_32" maskUnits="userSpaceOnUse" x="-1" y="-1" width="206" height="102" fill="black">
<rect fill="white" x="-1" y="-1" width="206" height="102"/>
<path d="M20.125 21.3125L12.75 22.8125C11.8333 22.8125 11.1458 22.6875 10.6875 22.4375C10.2292 22.1875 10 21.6667 10 20.875C10 19 11.9167 16.5 15.75 13.375C19.5833 10.2083 24.875 7.3125 31.625 4.6875C38.375 2.0625 44.4583 0.75 49.875 0.75C55.2917 0.75 59.1458 1.6875 61.4375 3.5625C63.7708 5.4375 64.9375 8.70833 64.9375 13.375C64.9375 18 63.9792 23.2708 62.0625 29.1875C60.1458 35.1042 57.3958 42.4375 53.8125 51.1875L64.6875 50.875C67.6042 50.875 69.0625 51.7292 69.0625 53.4375C69.0625 54.6458 68.375 55.6042 67 56.3125C63.4167 58.1458 57.7708 59.5208 50.0625 60.4375C47.1458 67.7292 44.8958 73.7917 43.3125 78.625C41.7708 83.4583 41 87.3958 41 90.4375L41.1875 94.5625C41.1875 95.8542 40.4792 96.875 39.0625 97.625C37.6458 98.375 36.1667 98.75 34.625 98.75L9.5625 99.125C4.9375 99.125 2.125 98.3333 1.125 96.75C0.666667 95.9583 0.4375 94.75 0.4375 93.125C0.4375 91.4583 0.791667 89.1042 1.5 86.0625C2.20833 82.9792 4.45833 76.9583 8.25 68C12.0833 59 15.5625 50.625 18.6875 42.875C21.8542 35.125 23.4375 30.0208 23.4375 27.5625C23.4375 25.0625 23.1667 23.3958 22.625 22.5625C22.0833 21.7292 21.25 21.3125 20.125 21.3125ZM95.5 98.75L72.3125 99.125C67.6875 99.125 64.875 98.3333 63.875 96.75C63.4167 95.9583 63.1875 94.9583 63.1875 93.75C63.1875 89.8333 64.7083 82.9583 67.75 73.125C70.7917 63.25 74.0833 52.8333 77.625 41.875C81.2083 30.9167 83.2917 23.6042 83.875 19.9375C84.4583 16.2708 84.75 13.0208 84.75 10.1875C84.75 7.35417 85.375 5.5625 86.625 4.8125C87.9167 4.02083 90.3958 3.625 94.0625 3.625C97.7708 3.625 102.229 3.4375 107.438 3.0625C112.646 2.6875 116.125 2.5 117.875 2.5C119.667 2.5 120.979 3 121.812 4C122.688 4.95833 123.125 6.1875 123.125 7.6875C123.125 15.0208 120.625 25.5 115.625 39.125C113.542 44.8333 111.458 50.5833 109.375 56.375C104.333 70.2083 101.812 81.625 101.812 90.625L102.062 94.5625C102.062 95.8542 101.354 96.875 99.9375 97.625C98.5208 98.375 97.0417 98.75 95.5 98.75ZM150 60.875C139.875 54.625 134.812 46.5417 134.812 36.625C134.812 32.2083 135.917 28.0833 138.125 24.25C140.333 20.4167 143.25 17.1667 146.875 14.5C150.5 11.8333 154.625 9.54167 159.25 7.625C168.375 3.875 178 2 188.125 2C194.417 2 198.708 3.33333 201 6C203 8.375 204 11.4792 204 15.3125C204 19.1042 203.083 24.0625 201.25 30.1875C199.458 36.2708 196.604 44.7708 192.688 55.6875C188.812 66.5625 185.875 75.125 183.875 81.375C181.875 87.5833 178.75 92.125 174.5 95C170.25 97.8333 164.312 99.25 156.688 99.25C149.104 99.25 141.979 98.3125 135.312 96.4375C128.688 94.5208 125.375 92.3333 125.375 89.875C125.375 88 126.771 86.9167 129.562 86.625C133.688 86.125 136.667 85.2083 138.5 83.875C140.375 82.5417 142.125 80.1667 143.75 76.75C145.375 73.3333 147.458 68.0417 150 60.875ZM161.375 21.6875C161.375 20.6875 161.062 19.875 160.438 19.25C159.854 18.625 159.104 18.3125 158.188 18.3125C157.271 18.3125 156.292 18.6667 155.25 19.375C154.208 20.0417 153.125 21.0833 152 22.5C149.208 25.875 147.812 30.5417 147.812 36.5C147.812 42.4583 149.417 48.0208 152.625 53.1875C158.458 35.8542 161.375 25.3542 161.375 21.6875Z"/>
</mask>
<path d="M20.125 21.3125V20.3125H20.0243L19.9257 20.3326L20.125 21.3125ZM12.75 22.8125V23.8125H12.8507L12.9493 23.7924L12.75 22.8125ZM15.75 13.375L16.3819 14.1501L16.3869 14.146L15.75 13.375ZM61.4375 3.5625L60.8042 4.33649L60.8111 4.34201L61.4375 3.5625ZM53.8125 51.1875L52.8871 50.8085L52.3045 52.2312L53.8412 52.1871L53.8125 51.1875ZM64.6875 50.875V49.875H64.6731L64.6588 49.8754L64.6875 50.875ZM67 56.3125L67.4555 57.2028L67.458 57.2015L67 56.3125ZM50.0625 60.4375L49.9444 59.4445L49.3546 59.5146L49.134 60.0661L50.0625 60.4375ZM43.3125 78.625L42.3622 78.3137L42.3598 78.3211L43.3125 78.625ZM41 90.4375H40V90.4602L40.001 90.4829L41 90.4375ZM41.1875 94.5625H42.1875V94.5398L42.1865 94.5171L41.1875 94.5625ZM34.625 98.75V97.75H34.6175L34.61 97.7501L34.625 98.75ZM9.5625 99.125V100.125H9.56998L9.57746 100.125L9.5625 99.125ZM1.125 96.75L0.259574 97.251L0.269225 97.2677L0.279511 97.284L1.125 96.75ZM1.5 86.0625L2.47394 86.2893L2.47461 86.2864L1.5 86.0625ZM8.25 68L7.32997 67.6081L7.32909 67.6102L8.25 68ZM18.6875 42.875L17.7618 42.4968L17.7601 42.501L18.6875 42.875ZM95.5 98.75V97.75H95.4919L95.4838 97.7501L95.5 98.75ZM72.3125 99.125V100.125H72.3206L72.3287 100.125L72.3125 99.125ZM63.875 96.75L63.0096 97.251L63.0192 97.2677L63.0295 97.284L63.875 96.75ZM67.75 73.125L68.7053 73.4205L68.7057 73.4194L67.75 73.125ZM77.625 41.875L76.6745 41.5642L76.6735 41.5675L77.625 41.875ZM86.625 4.8125L87.1395 5.67003L87.1476 5.6651L86.625 4.8125ZM121.812 4L121.044 4.64018L121.059 4.65756L121.074 4.67427L121.812 4ZM115.625 39.125L114.686 38.7805L114.686 38.7822L115.625 39.125ZM109.375 56.375L110.315 56.7174L110.316 56.7135L109.375 56.375ZM101.812 90.625H100.812V90.6567L100.815 90.6884L101.812 90.625ZM102.062 94.5625H103.062V94.5308L103.06 94.4991L102.062 94.5625ZM19.9257 20.3326L12.5507 21.8326L12.9493 23.7924L20.3243 22.2924L19.9257 20.3326ZM12.75 21.8125C11.8915 21.8125 11.4051 21.6898 11.1664 21.5596L10.2086 23.3154C10.8866 23.6852 11.7752 23.8125 12.75 23.8125V21.8125ZM11.1664 21.5596C11.1489 21.5501 11.1213 21.5341 11.0872 21.4566C11.0458 21.3625 11 21.1829 11 20.875H9C9 21.8259 9.28128 22.8096 10.2086 23.3154L11.1664 21.5596ZM11 20.875C11 20.263 11.3238 19.3856 12.2311 18.2022C13.1234 17.0384 14.4954 15.6879 16.3819 14.1501L15.1181 12.5999C13.1712 14.1871 11.6683 15.6491 10.6439 16.9853C9.63448 18.3019 9 19.612 9 20.875H11ZM16.3869 14.146C20.1096 11.0706 25.2957 8.22183 31.9874 5.6195L31.2626 3.7555C24.4543 6.40317 19.057 9.34603 15.1131 12.604L16.3869 14.146ZM31.9874 5.6195C38.6586 3.02519 44.6164 1.75 49.875 1.75V-0.25C44.3003 -0.25 38.0914 1.09981 31.2626 3.7555L31.9874 5.6195ZM49.875 1.75C55.2297 1.75 58.7886 2.68729 60.8043 4.33646L62.0707 2.78854C59.503 0.687705 55.3536 -0.25 49.875 -0.25V1.75ZM60.8111 4.34201C62.8013 5.94126 63.9375 8.84062 63.9375 13.375H65.9375C65.9375 8.57605 64.7404 4.93374 62.0639 2.78299L60.8111 4.34201ZM63.9375 13.375C63.9375 17.8663 63.006 23.0302 61.1112 28.8793L63.0138 29.4957C64.9524 23.5115 65.9375 18.1337 65.9375 13.375H63.9375ZM61.1112 28.8793C59.2051 34.7632 56.4652 42.0712 52.8871 50.8085L54.7379 51.5665C58.3264 42.8038 61.0865 35.4451 63.0138 29.4957L61.1112 28.8793ZM53.8412 52.1871L64.7162 51.8746L64.6588 49.8754L53.7838 50.1879L53.8412 52.1871ZM64.6875 51.875C66.0809 51.875 66.9619 52.0848 67.4633 52.3785C67.8821 52.6238 68.0625 52.9336 68.0625 53.4375H70.0625C70.0625 52.233 69.5137 51.2616 68.4742 50.6527C67.5172 50.0923 66.2107 49.875 64.6875 49.875V51.875ZM68.0625 53.4375C68.0625 54.1619 67.6942 54.83 66.542 55.4235L67.458 57.2015C69.0558 56.3784 70.0625 55.1297 70.0625 53.4375H68.0625ZM66.5445 55.4223C63.1242 57.1722 57.6235 58.5313 49.9444 59.4445L50.1806 61.4305C57.9182 60.5104 63.7091 59.1195 67.4555 57.2027L66.5445 55.4223ZM49.134 60.0661C46.2132 67.3682 43.9547 73.4524 42.3622 78.3137L44.2628 78.9363C45.837 74.131 48.0785 68.0901 50.991 60.8089L49.134 60.0661ZM42.3598 78.3211C40.8047 83.1964 40 87.2467 40 90.4375H42C42 87.5449 42.7369 83.7203 44.2652 78.9289L42.3598 78.3211ZM40.001 90.4829L40.1885 94.6079L42.1865 94.5171L41.999 90.3921L40.001 90.4829ZM40.1875 94.5625C40.1875 95.3886 39.7776 96.1149 38.5946 96.7412L39.5304 98.5088C41.1808 97.6351 42.1875 96.3197 42.1875 94.5625H40.1875ZM38.5946 96.7412C37.3162 97.418 35.997 97.75 34.625 97.75V99.75C36.3364 99.75 37.9755 99.332 39.5304 98.5088L38.5946 96.7412ZM34.61 97.7501L9.54754 98.1251L9.57746 100.125L34.64 99.7499L34.61 97.7501ZM9.5625 98.125C7.29496 98.125 5.5376 97.9296 4.25533 97.5687C2.95932 97.2039 2.28165 96.7087 1.97049 96.216L0.279511 97.284C0.96835 98.3747 2.19693 99.067 3.71342 99.4938C5.24365 99.9246 7.20504 100.125 9.5625 100.125V98.125ZM1.99043 96.249C1.66482 95.6866 1.4375 94.6919 1.4375 93.125H-0.5625C-0.5625 94.8081 -0.331489 96.2301 0.259574 97.251L1.99043 96.249ZM1.4375 93.125C1.4375 91.5744 1.77068 89.3092 2.47394 86.2893L0.52606 85.8357C-0.187346 88.8991 -0.5625 91.3422 -0.5625 93.125H1.4375ZM2.47461 86.2864C3.15996 83.3031 5.37281 77.3633 9.17091 68.3898L7.32909 67.6102C3.54386 76.5533 1.2567 82.6552 0.525387 85.8386L2.47461 86.2864ZM9.17002 68.3919C13.0055 59.3869 16.4872 51.0059 19.6149 43.249L17.7601 42.501C14.6378 50.2441 11.1612 58.6131 7.32998 67.6081L9.17002 68.3919ZM19.6132 43.2532C21.2021 39.3646 22.4014 36.1214 23.2051 33.5307C24 30.968 24.4375 28.9536 24.4375 27.5625H22.4375C22.4375 28.6297 22.0833 30.3966 21.2949 32.9381C20.5152 35.4515 19.3395 38.6354 17.7618 42.4968L19.6132 43.2532ZM24.4375 27.5625C24.4375 26.2817 24.3685 25.1821 24.2214 24.2771C24.0772 23.3894 23.8452 22.6048 23.4634 22.0175L21.7866 23.1075C21.9465 23.3535 22.1207 23.8189 22.2473 24.5979C22.3711 25.3596 22.4375 26.3433 22.4375 27.5625H24.4375ZM23.4634 22.0175C22.7104 20.859 21.536 20.3125 20.125 20.3125V22.3125C20.964 22.3125 21.4562 22.5993 21.7866 23.1075L23.4634 22.0175ZM95.4838 97.7501L72.2963 98.1251L72.3287 100.125L95.5162 99.7499L95.4838 97.7501ZM72.3125 98.125C70.045 98.125 68.2876 97.9296 67.0053 97.5687C65.7093 97.2039 65.0316 96.7087 64.7205 96.216L63.0295 97.284C63.7184 98.3747 64.9469 99.067 66.4634 99.4938C67.9936 99.9246 69.955 100.125 72.3125 100.125V98.125ZM64.7404 96.249C64.3941 95.6508 64.1875 94.8372 64.1875 93.75H62.1875C62.1875 95.0795 62.4392 96.2658 63.0096 97.251L64.7404 96.249ZM64.1875 93.75C64.1875 90.0043 65.6603 83.2648 68.7053 73.4205L66.7947 72.8295C63.7564 82.6518 62.1875 89.6624 62.1875 93.75H64.1875ZM68.7057 73.4194C71.7459 63.5492 75.0361 53.137 78.5765 42.1825L76.6735 41.5675C73.1305 52.5297 69.8375 62.9508 66.7943 72.8306L68.7057 73.4194ZM78.5755 42.1858C82.154 31.2422 84.2646 23.8533 84.8626 20.0946L82.8874 19.7804C82.3187 23.355 80.2627 30.5911 76.6745 41.5642L78.5755 42.1858ZM84.8626 20.0946C85.4518 16.391 85.75 13.0867 85.75 10.1875H83.75C83.75 12.955 83.4649 16.1507 82.8874 19.7804L84.8626 20.0946ZM85.75 10.1875C85.75 7.38829 86.388 6.12087 87.1395 5.66999L86.1105 3.95501C84.362 5.00413 83.75 7.32004 83.75 10.1875H85.75ZM87.1476 5.6651C87.632 5.36818 88.4266 5.09844 89.6108 4.90937C90.7805 4.72261 92.2603 4.625 94.0625 4.625V2.625C92.1981 2.625 90.605 2.7253 89.2955 2.93438C88.0005 3.14115 86.9097 3.46515 86.1024 3.9599L87.1476 5.6651ZM94.0625 4.625C97.8022 4.625 102.286 4.43601 107.509 4.05992L107.366 2.06508C102.172 2.43899 97.7394 2.625 94.0625 2.625V4.625ZM107.509 4.05992C112.724 3.6845 116.167 3.5 117.875 3.5V1.5C116.083 1.5 112.568 1.6905 107.366 2.06508L107.509 4.05992ZM117.875 3.5C119.487 3.5 120.465 3.94524 121.044 4.64018L122.581 3.35982C121.493 2.05476 119.846 1.5 117.875 1.5V3.5ZM121.074 4.67427C121.755 5.41981 122.125 6.39547 122.125 7.6875H124.125C124.125 5.97953 123.62 4.49686 122.551 3.32573L121.074 4.67427ZM122.125 7.6875C122.125 14.8373 119.677 25.1795 114.686 38.7805L116.564 39.4695C121.573 25.8205 124.125 15.2044 124.125 7.6875H122.125ZM114.686 38.7822C112.602 44.492 110.518 50.2434 108.434 56.0365L110.316 56.7135C112.399 50.9233 114.482 45.1747 116.564 39.4678L114.686 38.7822ZM108.435 56.0326C103.376 69.915 100.812 81.4575 100.812 90.625H102.812C102.812 81.7925 105.291 70.5017 110.315 56.7174L108.435 56.0326ZM100.815 90.6884L101.065 94.6259L103.06 94.4991L102.81 90.5616L100.815 90.6884ZM101.062 94.5625C101.062 95.3886 100.653 96.1149 99.4696 96.7412L100.405 98.5088C102.056 97.6351 103.062 96.3197 103.062 94.5625H101.062ZM99.4696 96.7412C98.1912 97.418 96.872 97.75 95.5 97.75V99.75C97.2114 99.75 98.8505 99.332 100.405 98.5088L99.4696 96.7412ZM150 60.875L150.942 61.2093L151.212 60.4482L150.525 60.0241L150 60.875ZM159.25 7.625L158.87 6.70006L158.867 6.70119L159.25 7.625ZM201 6L201.765 5.35583L201.758 5.34823L201 6ZM201.25 30.1875L200.292 29.9007L200.291 29.905L201.25 30.1875ZM192.688 55.6875L191.746 55.3498L191.746 55.3518L192.688 55.6875ZM183.875 81.375L184.827 81.6816L184.827 81.6798L183.875 81.375ZM174.5 95L175.055 95.8321L175.06 95.8283L174.5 95ZM135.312 96.4375L135.035 97.3981L135.042 97.4002L135.312 96.4375ZM129.562 86.625L129.666 87.6196L129.675 87.6187L129.683 87.6177L129.562 86.625ZM138.5 83.875L137.92 83.06L137.912 83.0663L138.5 83.875ZM160.438 19.25L159.706 19.9323L159.718 19.9449L159.73 19.9571L160.438 19.25ZM155.25 19.375L155.789 20.2173L155.801 20.2098L155.812 20.2019L155.25 19.375ZM152 22.5L152.771 23.1374L152.777 23.1297L152.783 23.1219L152 22.5ZM152.625 53.1875L151.775 53.715L152.896 55.5188L153.573 53.5065L152.625 53.1875ZM150.525 60.0241C140.627 53.9138 135.812 46.1211 135.812 36.625H133.812C133.812 46.9622 139.123 55.3362 149.475 61.7259L150.525 60.0241ZM135.812 36.625C135.812 32.3839 136.87 28.431 138.991 24.7492L137.259 23.7508C134.963 27.7357 133.812 32.0328 133.812 36.625H135.812ZM138.991 24.7492C141.129 21.0379 143.952 17.8916 147.468 15.3055L146.282 13.6945C142.548 16.4417 139.537 19.7954 137.259 23.7508L138.991 24.7492ZM147.468 15.3055C151.021 12.6916 155.074 10.438 159.633 8.54881L158.867 6.70119C154.176 8.64528 149.979 10.9751 146.282 13.6945L147.468 15.3055ZM159.63 8.54994C168.631 4.85082 178.127 3 188.125 3V1C177.873 1 168.119 2.89918 158.87 6.70006L159.63 8.54994ZM188.125 3C194.341 3 198.246 4.32934 200.242 6.65177L201.758 5.34823C199.171 2.33733 194.492 1 188.125 1V3ZM200.235 6.64414C202.05 8.79945 203 11.6577 203 15.3125H205C205 11.3007 203.95 7.95055 201.765 5.35586L200.235 6.64414ZM203 15.3125C203 18.9631 202.114 23.8144 200.292 29.9008L202.208 30.4742C204.053 24.3106 205 19.2452 205 15.3125H203ZM200.291 29.905C198.507 35.9605 195.661 44.4391 191.746 55.3498L193.629 56.0252C197.548 45.1026 200.409 36.5812 202.209 30.47L200.291 29.905ZM191.746 55.3518C187.869 66.2307 184.927 74.805 182.923 81.0702L184.827 81.6798C186.823 75.445 189.756 66.8943 193.629 56.0232L191.746 55.3518ZM182.923 81.0684C180.973 87.1225 177.959 91.4525 173.94 94.1717L175.06 95.8283C179.541 92.7975 182.777 88.0442 184.827 81.6816L182.923 81.0684ZM173.945 94.1679C169.922 96.8502 164.207 98.25 156.688 98.25V100.25C164.418 100.25 170.578 98.8165 175.055 95.8321L173.945 94.1679ZM156.688 98.25C149.187 98.25 142.154 97.3228 135.583 95.4748L135.042 97.4002C141.804 99.3022 149.021 100.25 156.688 100.25V98.25ZM135.59 95.4769C132.315 94.5292 129.943 93.5367 128.41 92.5249C126.857 91.4993 126.375 90.6005 126.375 89.875H124.375C124.375 91.6078 125.549 93.0319 127.308 94.1938C129.089 95.3695 131.685 96.4292 135.035 97.3981L135.59 95.4769ZM126.375 89.875C126.375 89.2246 126.598 88.7854 127.035 88.4462C127.523 88.0677 128.357 87.7564 129.666 87.6196L129.459 85.6304C127.977 85.7852 126.717 86.1615 125.809 86.8663C124.85 87.6104 124.375 88.6504 124.375 89.875H126.375ZM129.683 87.6177C133.857 87.1117 137.045 86.1699 139.088 84.6837L137.912 83.0663C136.289 84.2468 133.518 85.1383 129.442 85.6323L129.683 87.6177ZM139.08 84.69C141.156 83.2135 142.997 80.6619 144.653 77.1795L142.847 76.3205C141.253 79.6714 139.594 81.8699 137.92 83.06L139.08 84.69ZM144.653 77.1795C146.301 73.7144 148.398 68.3829 150.942 61.2093L149.058 60.5407C146.518 67.7004 144.449 72.9523 142.847 76.3205L144.653 77.1795ZM162.375 21.6875C162.375 20.4603 161.982 19.3807 161.145 18.5429L159.73 19.9571C160.143 20.3693 160.375 20.9147 160.375 21.6875H162.375ZM161.169 18.5677C160.381 17.7242 159.359 17.3125 158.188 17.3125V19.3125C158.849 19.3125 159.327 19.5258 159.706 19.9323L161.169 18.5677ZM158.188 17.3125C157.008 17.3125 155.835 17.768 154.688 18.5481L155.812 20.2019C156.748 19.5654 157.534 19.3125 158.188 19.3125V17.3125ZM154.711 18.5327C153.544 19.2796 152.382 20.4113 151.217 21.8781L152.783 23.1219C153.868 21.7554 154.873 20.8038 155.789 20.2173L154.711 18.5327ZM151.229 21.8626C148.244 25.4723 146.812 30.3927 146.812 36.5H148.812C148.812 30.6906 150.173 26.2777 152.771 23.1374L151.229 21.8626ZM146.812 36.5C146.812 42.6488 148.471 48.3934 151.775 53.715L153.475 52.66C150.362 47.6482 148.812 42.2679 148.812 36.5H146.812ZM153.573 53.5065C156.492 44.8325 158.686 37.855 160.151 32.5801C161.603 27.3522 162.375 23.6796 162.375 21.6875H160.375C160.375 23.362 159.688 26.7728 158.224 32.0449C156.773 37.27 154.591 44.2092 151.677 52.8685L153.573 53.5065Z" fill="#8750F7" fill-opacity="0.5" mask="url(#path-1-outside-1_119_32)"/>
</svg>
